<svg width="158" height="56" viewBox="0 0 158 56" fill="none" xmlns="http://www.w3.org/2000/svg">
<g id="Logo">
<path id="Vector" d="M12.7314 49.248C12.748 49.0303 12.9133 49.011 13.0219 48.9491C17.6654 46.3013 22.3121 43.6589 26.9557 41.0111C27.2689 40.8324 27.5854 40.7154 27.9523 40.7446C28.1383 40.7594 28.3265 40.7471 28.5137 40.7471C43.0921 40.7471 57.6704 40.7472 72.2488 40.7465C72.5294 40.7465 72.8101 40.7412 73.0906 40.7327C73.2844 40.7268 73.3904 40.6068 73.4191 40.4308C73.445 40.2715 73.4521 40.1077 73.4523 39.9458C73.4545 38.2286 73.4536 36.5114 73.4535 34.7942C73.4535 34.771 73.4535 34.7478 73.4526 34.7246C73.4307 34.0914 73.3629 34.0238 72.7048 34.0022C72.471 33.9945 72.2368 33.9991 72.0028 33.9991C65.872 33.999 59.7411 33.999 53.6102 33.999C53.3315 33.999 53.0528 33.999 52.7705 33.999C52.7414 33.7314 52.9414 33.7042 53.0639 33.6326C54.4947 32.7965 55.9325 31.972 57.3633 31.1359C61.9385 28.4628 66.5823 25.9092 71.1958 23.3027C71.8054 22.9582 72.4096 22.6037 73.0262 22.2717C73.331 22.1076 73.4563 21.8746 73.4534 21.54C73.4468 20.7975 73.4539 20.0549 73.4542 19.3123C73.4546 18.1753 73.4588 17.0382 73.4521 15.9011C73.4476 15.1275 73.3813 15.0662 72.6187 15.0515C72.4082 15.0474 72.1975 15.0502 71.9869 15.0502C64.4754 15.0501 56.964 15.0503 49.4525 15.049C49.2055 15.0489 48.9585 15.0336 48.7052 15.0252C48.7487 14.8096 48.9102 14.7882 49.0218 14.7245C53.5233 12.1575 58.0292 9.59802 62.528 7.02632C62.8886 6.82024 63.2474 6.71119 63.6581 6.73652C63.8679 6.74947 64.0791 6.73849 64.2897 6.73849C83.9459 6.73847 103.602 6.73844 123.258 6.73874C123.656 6.73875 124.054 6.74043 124.452 6.74525C126.983 6.77597 129.419 7.28804 131.759 8.22993C136.681 10.2114 140.377 13.5533 142.856 18.2036C143.968 20.2892 144.688 22.5122 145.014 24.8559C145.165 25.9364 145.286 27.019 145.267 28.1111C145.193 32.3934 144.026 36.3494 141.584 39.897C138.742 44.0275 134.906 46.8552 130.083 48.3427C128.742 48.756 127.371 49.0102 125.971 49.1588C125.036 49.2582 124.105 49.2611 123.171 49.2638C121.088 49.2699 119.006 49.2672 116.923 49.2649C116.138 49.264 116.119 49.2503 116.118 48.5006C116.114 45.6928 116.116 42.8849 116.117 40.0771C116.117 39.9153 116.126 39.7525 116.146 39.592C116.166 39.4319 116.293 39.3631 116.455 39.4244C116.651 39.4988 116.844 39.5826 117.036 39.6682C119.043 40.5637 121.159 40.9299 123.333 40.7096C127.858 40.2512 131.276 38.0294 133.563 34.1271C134.408 32.6856 134.931 31.1171 135.094 29.4631C135.552 24.8058 133.983 20.9342 130.351 17.932C128.631 16.5095 126.635 15.64 124.415 15.2697C123.698 15.15 122.974 15.0608 122.257 15.0693C120.419 15.0909 118.636 15.4321 116.955 16.2054C116.849 16.2541 116.746 16.3085 116.639 16.3556C116.218 16.5416 116.145 16.5008 116.119 16.065C116.107 15.8568 116.11 15.6469 116.085 15.4404C116.057 15.2127 115.951 15.1055 115.728 15.0798C115.519 15.0557 115.308 15.0517 115.098 15.0515C113.507 15.0493 111.915 15.0526 110.324 15.0495C109.179 15.0472 109.312 15.1345 109.312 16.0401C109.31 26.7377 109.311 37.4354 109.311 48.133C109.311 48.3651 109.317 48.5976 109.305 48.829C109.287 49.1606 109.204 49.245 108.887 49.2607C108.677 49.2711 108.466 49.2656 108.255 49.2656C100.486 49.2658 92.7172 49.2658 84.9482 49.2657C61.1502 49.2657 37.3522 49.2658 13.5541 49.265C13.2806 49.265 13.0072 49.254 12.7314 49.248ZM97.0481 39.3434C97.1502 39.5437 97.1097 39.7325 97.1135 39.9153C97.1307 40.7392 97.1287 40.7443 97.9233 40.7458C99.6545 40.7492 101.386 40.7474 103.117 40.7462C103.28 40.7461 103.445 40.7418 103.607 40.7273C103.763 40.7135 103.873 40.619 103.894 40.4684C103.922 40.2628 103.935 40.0535 103.935 39.8458C103.937 31.8882 103.937 23.9307 103.936 15.9731C103.936 15.0995 103.894 15.0554 103.038 15.0524C101.353 15.0466 99.669 15.0494 97.9846 15.0521C97.7983 15.0524 97.6097 15.0615 97.4264 15.0919C97.2487 15.1213 97.1363 15.2393 97.1286 15.4267C97.1173 15.7047 97.119 15.9833 97.1052 16.2611C97.0962 16.4437 96.9874 16.5182 96.8283 16.4558C96.6546 16.3877 96.4839 16.3112 96.3146 16.2326C94.6591 15.4632 92.9027 15.1019 91.0892 15.0711C90.0655 15.0538 89.0436 15.1838 88.0345 15.415C81.2922 16.9595 76.8651 23.6434 78.2784 30.4873C79.3026 35.4473 83.477 40.0879 89.7919 40.7077C92.09 40.9333 94.3119 40.5385 96.416 39.5616C96.602 39.4752 96.7667 39.3238 97.0481 39.3434Z" fill="#2F52E0"/>
<path id="Vector_2" d="M23.5625 29.2183C24.3294 28.7795 25.0955 28.3393 25.8633 27.9022C29.228 25.9866 32.5959 24.0765 35.9549 22.1511C36.3749 21.9103 36.7912 21.7981 37.2789 21.7988C44.5972 21.8098 51.9155 21.806 59.2339 21.8084C59.4353 21.8085 59.6446 21.7693 59.8438 21.8541C59.7918 22.0268 59.6422 22.0544 59.5299 22.1188C55.6252 24.3572 51.7203 26.5951 47.8119 28.8272C46.7125 29.455 47.0715 29.3374 45.9031 29.3381C38.7251 29.3421 31.547 29.3401 24.369 29.3401H23.6022C23.589 29.2995 23.5757 29.2589 23.5625 29.2183Z" fill="#2F52E0"/>
<path id="Vector_3" d="M122.229 33.9909C118.874 34.0781 116.082 31.1839 116.097 27.8915C116.11 24.8009 118.627 21.8089 122.278 21.815C125.266 21.8199 128.354 24.0959 128.373 27.9066C128.392 31.6767 125.254 34.0801 122.229 33.9909Z" fill="#2F52E0"/>
<path id="Vector_4" d="M90.9979 33.9904C87.499 34.0892 84.8552 31.073 84.8226 27.9967C84.7906 24.983 87.191 21.8583 90.9092 21.8182C94.5025 21.7796 97.1028 24.7143 97.1175 27.8727C97.1334 31.2821 94.2776 34.0709 90.9979 33.9904Z" fill="#2F52E0"/>
</g>
</svg>
